<?xml version="1.0" encoding="UTF-8" standalone="no"?>
<svg width="115px" height="241px" viewBox="0 0 115 241" version="1.1" xmlns="http://www.w3.org/2000/svg" xmlns:xlink="http://www.w3.org/1999/xlink">
    <!-- Generator: Sketch 3.7.2 (28276) - http://www.bohemiancoding.com/sketch -->
    <title>IPHONE_x5F_5S_x5F_BLACK_x5F_FRONT</title>
    <desc>Created with Sketch.</desc>
    <defs></defs>
    <g id="Page-1" stroke="none" stroke-width="1" fill="none" fill-rule="evenodd">
        <g id="IPHONE_x5F_5S_x5F_BLACK_x5F_FRONT">
            <g id="Group">
                <g>
                    <g transform="translate(77.795551, 0.000000)" id="Shape">
                        <polygon fill="#808184" points="17.895992 0 0.874446112 0 0.0904599427 0.451875 0.0904599427 1.355625 18.4839816 1.355625 18.4839816 0.451875"></polygon>
                        <polygon fill="#A6A8AC" points="0.874446112 0 17.8809153 0 18.468905 0.74382716 0.0753832856 0.74382716"></polygon>
                    </g>
                    <g transform="translate(0.000000, 34.342500)" id="Shape">
                        <path d="M0.452299713,0 C0.256303171,0.1958125 0.120613257,0.331375 0,0.451875 L0,10.54375 C0.150766571,10.694375 0.256303171,10.7998125 0.452299713,10.995625 L1.35689914,10.995625 L1.35689914,0 L0.452299713,0 L0.452299713,0 Z" fill="#808184"></path>
                        <path d="M0.745021822,10.995625 L0.745021822,10.995625 C0.422179033,10.7998125 0.248340607,10.694375 0,10.54375 L0,0.451875 C0.198672486,0.331375 0.422179033,0.1958125 0.745021822,0 L0.745021822,0 L0.745021822,10.995625 L0.745021822,10.995625 Z" fill="#A6A8AC"></path>
                        <path d="M0.452299713,22.744375 L0.452299713,22.744375 C0.256303171,22.9401875 0.120613257,23.07575 0,23.19625 L0,30.7275 C0.150766571,30.878125 0.256303171,30.9835625 0.452299713,31.179375 L1.35689914,31.179375 L1.35689914,22.744375 L0.452299713,22.744375 L0.452299713,22.744375 Z" fill="#808184"></path>
                        <path d="M0.745021822,31.179375 L0.745021822,31.179375 C0.422179033,30.9835625 0.248340607,30.878125 0,30.7275 L0,23.19625 C0.198672486,23.07575 0.422179033,22.9401875 0.745021822,22.744375 L0.745021822,22.744375 L0.745021822,31.179375 L0.745021822,31.179375 Z" fill="#A6A8AC"></path>
                        <path d="M0.452299713,39.313125 L0.452299713,39.313125 C0.256303171,39.5089375 0.120613257,39.6445 0,39.765 L0,47.29625 C0.150766571,47.446875 0.256303171,47.5523125 0.452299713,47.748125 L1.35689914,47.748125 L1.35689914,39.313125 L0.452299713,39.313125 L0.452299713,39.313125 Z" fill="#808184"></path>
                        <path d="M0.745021822,47.748125 L0.745021822,47.748125 C0.422179033,47.5523125 0.248340607,47.446875 0,47.29625 L0,39.765 C0.198672486,39.6445 0.422179033,39.5089375 0.745021822,39.313125 L0.745021822,39.313125 L0.745021822,47.748125 L0.745021822,47.748125 Z" fill="#A6A8AC"></path>
                    </g>
                    <path d="M109.712834,6.08525 C106.516582,2.892 102.280042,1.14475 97.7570447,1.14475 L17.8809153,1.14475 C13.3729949,1.14475 9.12137755,2.892 5.92512624,6.08525 C2.74395159,9.2785 0.979982712,13.5110625 0.979982712,18.0298125 L0.979982712,224.084812 C0.979982712,228.5885 2.74395159,232.836125 5.92512624,236.014313 C9.12137755,239.207563 13.3579182,240.954813 17.8809153,240.954813 L97.741968,240.954813 C102.249889,240.954813 106.501506,239.1925 109.697757,236.014313 C112.894008,232.821063 114.642901,228.5885 114.642901,224.084812 L114.642901,18.0298125 C114.657977,13.5110625 112.894008,9.2785 109.712834,6.08525 L109.712834,6.08525 Z" id="Shape" fill="#A6A8AC"></path>
                    <g transform="translate(2.261499, 2.410000)" id="Shape">
                        <path d="M95.4955461,0.090375 L15.6194168,0.090375 C7.04079887,0.090375 0.0753832856,7.04925 0.0753832856,15.60475 L0.0753832856,221.65975 C0.0753832856,230.21525 7.05587553,237.174125 15.6194168,237.174125 L95.4804695,237.174125 C104.059087,237.174125 111.024503,230.21525 111.024503,221.65975 L111.024503,15.60475 C111.03958,7.0643125 104.059087,0.090375 95.4955461,0.090375 L95.4955461,0.090375 Z" fill="#231F20"></path>
                        <path d="M110.58728,221.65975 C110.58728,229.97425 103.832938,236.72225 95.4955461,236.72225 L15.6194168,236.72225 C7.28202538,236.72225 0.527682999,229.97425 0.527682999,221.65975 L0.527682999,15.60475 C0.527682999,7.29025 7.28202538,0.54225 15.6194168,0.54225 L95.4804695,0.54225 C103.817861,0.54225 110.572203,7.29025 110.572203,15.60475 L110.572203,221.65975 L110.58728,221.65975 Z" fill="#030303"></path>
                    </g>
                    <path d="M106.064283,35.7734375 L106.064283,206.883437 L9.57367727,206.883437 L9.57367727,35.7734375 L106.064283,35.7734375 L106.064283,35.7734375 Z M106.064283,35.0203125 L9.57367727,35.0203125 C9.15153087,35.0203125 8.81984441,35.3516875 8.81984441,35.7734375 L8.81984441,206.883437 C8.81984441,207.305187 9.15153087,207.636562 9.57367727,207.636562 L106.064283,207.636562 C106.486429,207.636562 106.818116,207.305187 106.818116,206.883437 L106.818116,35.7734375 C106.818116,35.3516875 106.486429,35.0203125 106.064283,35.0203125 L106.064283,35.0203125 L106.064283,35.0203125 Z" id="Shape" fill="#231F20" opacity="0.5"></path>
                    <g transform="translate(47.189937, 23.196250)" id="Shape">
                        <path d="M21.1827032,2.2895 C21.1827032,3.5396875 20.1725672,4.548875 18.9212047,4.548875 L2.33688185,4.548875 C1.08551931,4.548875 0.0753832856,3.5396875 0.0753832856,2.2895 L0.0753832856,2.2895 C0.0753832856,1.0393125 1.08551931,0.030125 2.33688185,0.030125 L18.9212047,0.030125 C20.1725672,0.030125 21.1827032,1.0393125 21.1827032,2.2895 L21.1827032,2.2895 L21.1827032,2.2895 Z" fill="#231F20"></path>
                        <path d="M18.9212047,1.0845 L2.33688185,1.0845 C1.67350894,1.0845 1.13074928,1.62675 1.13074928,2.2895 C1.13074928,2.95225 1.67350894,3.4945 2.33688185,3.4945 L2.72887494,3.4945 L13.9609845,3.4945 L18.4990583,3.4945 L18.9212047,3.4945 C19.1775078,3.4945 19.4187344,3.404125 19.6147309,3.2685625 C19.916264,3.042625 20.1273372,2.6961875 20.1273372,2.2895 C20.1273372,1.62675 19.5845776,1.0845 18.9212047,1.0845 L18.9212047,1.0845 Z" fill="#010101"></path>
                    </g>
                    <g transform="translate(55.632865, 12.803125)" id="Oval">
                        <ellipse fill="#231F20" cx="2.18611528" cy="2.199125" rx="2.14088531" ry="2.138875"></ellipse>
                        <ellipse fill="#010101" cx="2.18611528" cy="2.199125" rx="0.919676084" ry="0.9188125"></ellipse>
                        <ellipse fill="#231F20" cx="2.18611528" cy="2.199125" rx="0.633219599" ry="0.632625"></ellipse>
                        <ellipse fill="#FFFFFF" cx="2.28724636" cy="2.08903858" rx="0.372510911" ry="0.37191358"></ellipse>
                    </g>
                </g>
            </g>
            <path d="M57.1857604,212.275812 C51.3510941,212.275812 46.6321004,216.990375 46.6321004,222.819563 C46.6321004,228.64875 51.3510941,233.363313 57.1857604,233.363313 C63.0204267,233.363313 67.7394204,228.64875 67.7394204,222.819563 C67.7394204,216.990375 63.0053501,212.275812 57.1857604,212.275812 L57.1857604,212.275812 Z M57.1706838,232.158313 C52.014467,232.158313 47.8231564,227.970938 47.8231564,222.819563 C47.8231564,217.668188 52.014467,213.480812 57.1706838,213.480812 C62.3269005,213.480812 66.5182112,217.668188 66.5182112,222.819563 C66.5182112,227.970938 62.3419772,232.158313 57.1706838,232.158313 L57.1706838,232.158313 Z" id="Shape" fill="#231F20"></path>
        </g>
    </g>
</svg>