<?xml version="1.0" encoding="UTF-8" standalone="no"?>
<svg width="397px" height="230px" viewBox="0 0 397 230" version="1.1" xmlns="http://www.w3.org/2000/svg" xmlns:xlink="http://www.w3.org/1999/xlink">
    <!-- Generator: Sketch 3.7.2 (28276) - http://www.bohemiancoding.com/sketch -->
    <title>MACKBOOK_x5F_PRO_x5F_FRONT</title>
    <desc>Created with Sketch.</desc>
    <defs>
        <linearGradient x1="50.0050996%" y1="98.6845533%" x2="50.0050996%" y2="0.418121037%" id="linearGradient-1">
            <stop stop-color="#808184" offset="0%"></stop>
            <stop stop-color="#F1F1F2" offset="50%"></stop>
            <stop stop-color="#BBBDBF" offset="99.94%"></stop>
        </linearGradient>
        <linearGradient x1="50.0016419%" y1="2.452%" x2="50.0016419%" y2="54.6645714%" id="linearGradient-2">
            <stop stop-color="#010101" offset="0%"></stop>
            <stop stop-color="#262B31" offset="100%"></stop>
        </linearGradient>
        <linearGradient x1="-0.00237219333%" y1="41.22%" x2="99.9981479%" y2="41.22%" id="linearGradient-3">
            <stop stop-color="#FFFFFF" stop-opacity="0" offset="0%"></stop>
            <stop stop-color="#FFFFFF" offset="50%"></stop>
            <stop stop-color="#FFFFFF" stop-opacity="0" offset="100%"></stop>
        </linearGradient>
    </defs>
    <g id="Page-1" stroke="none" stroke-width="1" fill="none" fill-rule="evenodd">
        <g id="MACKBOOK_x5F_PRO_x5F_FRONT">
            <g id="Group">
                <g transform="translate(41.000000, 0.000000)" id="Shape">
                    <g>
                        <path d="M313.825,1.09708309 C320.65,1.09708309 326.175,6.60743226 326.175,13.4143342 L326.175,210.81449 C326.175,212.210777 325.9,213.50733 325.425,214.729082 C325.2,215.302557 324.65,215.701496 324.025,215.701496 L3.4,215.701496 C2.775,215.701496 2.225,215.302557 2,214.729082 C1.525,213.50733 1.25,212.185843 1.25,210.81449 L1.25,13.4143342 C1.25,6.60743226 6.775,1.09708309 13.6,1.09708309 L313.825,1.09708309 L313.825,1.09708309 Z M313.825,0 L13.575,0 C6.15,0 0.125,6.0090233 0.125,13.4143342 L0.125,210.81449 C0.125,212.285578 0.4,213.756667 0.95,215.128021 C1.35,216.150303 2.3,216.798579 3.375,216.798579 L324.025,216.798579 C325.1,216.798579 326.05,216.150303 326.45,215.128021 C327,213.731733 327.275,212.285578 327.275,210.81449 L327.275,13.4143342 C327.3,6.0090233 321.25,0 313.825,0 L313.825,0 L313.825,0 Z" fill="#E5E6E7"></path>
                        <path d="M313.825,1.09708309 C320.65,1.09708309 326.175,6.60743226 326.175,13.4143342 L326.175,210.81449 C326.175,212.210777 325.9,213.50733 325.425,214.729082 C325.2,215.302557 324.65,215.701496 324.025,215.701496 L3.4,215.701496 C2.775,215.701496 2.225,215.302557 2,214.729082 C1.525,213.50733 1.25,212.185843 1.25,210.81449 L1.25,13.4143342 C1.25,6.60743226 6.775,1.09708309 13.6,1.09708309 L313.825,1.09708309 L313.825,1.09708309 Z M313.825,0.498674133 L13.575,0.498674133 C6.15,0.498674133 0.625,6.50769743 0.625,13.9130083 L0.625,210.81449 C0.625,212.285578 0.9,213.756667 1.45,215.128021 C1.85,216.150303 2.3,216.798579 3.375,216.798579 L323.525,216.798579 C324.6,216.798579 325.55,216.150303 325.95,215.128021 C326.5,213.731733 326.775,212.285578 326.775,210.81449 L326.775,14.4116824 C326.8,6.30822778 321.325,0.598408959 313.825,0.498674133 L313.825,0.498674133 L313.825,0.498674133 Z" fill="url(#linearGradient-1)"></path>
                        <path d="M324.05,215.72643 C324.675,215.72643 325.225,215.32749 325.45,214.754015 C325.925,213.532264 326.2,212.210777 326.2,210.839423 L326.2,13.4143342 C326.2,6.60743226 320.675,1.09708309 313.85,1.09708309 L13.6,1.09708309 C6.775,1.09708309 1.25,6.60743226 1.25,13.4143342 L1.25,210.81449 C1.25,212.210777 1.525,213.50733 2,214.729082 C2.225,215.302557 2.775,215.701496 3.4,215.701496 L324.05,215.701496 L324.05,215.72643 Z" fill="#0E1316"></path>
                    </g>
                    <polygon fill="#F1F1F2" opacity="0.1" points="36.575 212.460114 290.875 212.460114 291.175 216.823513 36.25 216.823513"></polygon>
                    <polygon fill="url(#linearGradient-2)" points="36.875 212.460114 290.55 212.460114 290.85 216.823513 36.575 216.823513"></polygon>
                    <g transform="translate(2.250000, 1.994697)">
                        <path d="M313.65,210.590086 L9.275,210.590086 C3.05,210.590086 0.2,207.747644 0.2,201.539151 L0.2,11.3697702 C0.2,5.16127727 5.275,0.0997348265 11.5,0.0997348265 L311.45,0.0997348265 C317.675,0.0997348265 322.75,5.16127727 322.75,11.3697702 L322.75,201.539151 C322.725,207.747644 319.875,210.590086 313.65,210.590086 L313.65,210.590086 Z M11.5,1.22175162 C5.875,1.22175162 1.3,5.78461994 1.3,11.3947039 L1.3,199.369918 C1.3,204.980002 5.875,209.542871 11.5,209.542871 L311.45,209.542871 C317.075,209.542871 321.65,204.980002 321.65,199.369918 L321.65,11.3697702 C321.65,5.75968623 317.075,1.19681792 311.45,1.19681792 L11.5,1.19681792 L11.5,1.22175162 Z" fill="#010101"></path>
                        <g transform="translate(0.750000, 0.498674)">
                            <path d="M310.7,0.174535946 L10.75,0.174535946 C4.825,0.174535946 -1.84741111e-12,4.96180762 -1.84741111e-12,10.8960298 L-1.84741111e-12,201.06541 C-1.84741111e-12,206.974699 2.6,209.567804 8.525,209.567804 L312.875,209.567804 C318.8,209.567804 321.4,206.974699 321.4,201.06541 L321.4,10.8710961 C321.425,4.96180762 316.625,0.174535946 310.7,0.174535946 L310.7,0.174535946 Z" fill="#272C31"></path>
                            <path d="M11.4,0.623342666 C4.375,0.623342666 0.7,5.38568063 0.7,11.2949691 L0.7,200.616604 C0.7,207.124301 3.3,209.094064 9.2,209.094064 L312.2,209.094064 C318.1,209.094064 320.7,207.52324 320.7,200.616604 L320.7,11.2949691 C320.725,5.41061434 316.975,0.623342666 310.025,0.623342666 L11.4,0.623342666 Z" fill="#181B1E"></path>
                            <path d="M311.575,2 L11.625,2 C6.3,2 2,6.31353125 2,11.5994771 L2,201.768858 C2,207.079737 4.125,209.174168 9.425,209.174168 L313.775,209.174168 C319.1,209.174168 321.2,207.054803 321.2,201.768858 L321.2,11.5994771 C321.2,6.31353125 316.875,2 311.575,2 L311.575,2 Z" fill="#010101"></path>
                        </g>
                    </g>
                    <path d="M314.9,13.8132735 L314.9,202.436764 L12.525,202.436764 L12.525,13.8132735 L314.9,13.8132735 L314.9,13.8132735 Z M314.9,12.7161904 L12.525,12.7161904 C11.925,12.7161904 11.425,13.2148645 11.425,13.8132735 L11.425,202.436764 C11.425,203.035173 11.925,203.533847 12.525,203.533847 L314.9,203.533847 C315.5,203.533847 316,203.035173 316,202.436764 L316,13.8132735 C316,13.2148645 315.5,12.7161904 314.9,12.7161904 L314.9,12.7161904 L314.9,12.7161904 Z" fill="#F1F1F2" opacity="0.05"></path>
                    <g transform="translate(162.000000, 6.732101)">
                        <path d="M1.725,0.29920448 C2.6,0.29920448 3.325,0.997348265 3.325,1.8949617 C3.325,2.76764144 2.625,3.49071893 1.725,3.49071893 C0.85,3.49071893 0.125,2.79257514 0.125,1.8949617 C0.125,0.997348265 0.85,0.29920448 1.725,0.29920448 L1.725,0.29920448 Z" fill="#F1F1F2" opacity="0.5"></path>
                        <path d="M1.725,0.22440336 C2.6,0.22440336 3.325,0.922547145 3.325,1.82016058 C3.325,2.69284032 2.625,3.41591781 1.725,3.41591781 C0.85,3.41591781 0.125,2.71777402 0.125,1.82016058 C0.125,0.922547145 0.85,0.22440336 1.725,0.22440336 L1.725,0.22440336 Z" fill="#231F20"></path>
                        <path d="M1.725,0.448806719 C2.475,0.448806719 3.075,1.04721568 3.075,1.79522688 C3.075,2.54323808 2.475,3.14164704 1.725,3.14164704 C0.975,3.14164704 0.375,2.54323808 0.375,1.79522688 C0.375,1.04721568 0.975,0.448806719 1.725,0.448806719 L1.725,0.448806719 Z" fill="#010101" opacity="0.5"></path>
                        <path d="M1.725,0.947480852 C2.2,0.947480852 2.575,1.32148645 2.575,1.79522688 C2.575,2.2689673 2.2,2.6429729 1.725,2.6429729 C1.25,2.6429729 0.875,2.2689673 0.875,1.79522688 C0.875,1.32148645 1.25,0.947480852 1.725,0.947480852 L1.725,0.947480852 Z" fill="#010101" opacity="0.5"></path>
                        <path d="M1.725,1.17188421 C2.075,1.17188421 2.35,1.44615498 2.35,1.79522688 C2.35,2.14429877 2.075,2.41856954 1.725,2.41856954 C1.375,2.41856954 1.1,2.14429877 1.1,1.79522688 C1.1,1.44615498 1.375,1.17188421 1.725,1.17188421 L1.725,1.17188421 Z" fill="#231F20"></path>
                        <path d="M1.73196023,1.29655274 C1.88575671,1.29655274 2.01392045,1.40197326 2.01392045,1.57767412 C2.01392045,1.7182348 1.88575671,1.85879549 1.73196023,1.85879549 C1.57816374,1.85879549 1.45,1.75337497 1.45,1.57767412 C1.45,1.40197326 1.57816374,1.29655274 1.73196023,1.29655274 L1.73196023,1.29655274 Z" fill="#FFFFFF"></path>
                    </g>
                </g>
                <g transform="translate(0.000000, 217.000000)" id="Shape">
                    <g transform="translate(0.000000, -0.000000)">
                        <path d="M0.4,0.14960224 L396.55,0.14960224 C396.775,0.14960224 396.95,0.324138186 396.95,0.548541546 L396.95,7.08117268 C396.95,7.30557604 396.775,7.48011199 396.55,7.48011199 L0.4,7.48011199 C0.175,7.48011199 0,7.30557604 0,7.08117268 L0,0.548541546 C0,0.349071893 0.175,0.14960224 0.4,0.14960224 L0.4,0.14960224 Z" fill="#BBBDBF"></path>
                        <path d="M0.2,7.5050457 L396.725,7.5050457 C396.725,7.5050457 392.975,9.92361524 388.225,11.1204332 C383.5,12.3172511 377.8,12.2673837 377.8,12.2673837 L19.125,12.2673837 C19.125,12.2673837 13.7,12.2923174 9.025,11.1204332 C4.225,9.89868153 0.2,7.5050457 0.2,7.5050457 L0.2,7.5050457 Z" fill="#6E6F72"></path>
                    </g>
                    <path d="M178.55,0.174535946 L218.4,0.174535946 L226.275,0.174535946 C226.25,2.76764144 224.5,4.86207279 222.325,4.86207279 L222.1,4.86207279 L174.825,4.86207279 L174.6,4.86207279 C172.425,4.86207279 170.675,2.76764144 170.65,0.174535946 L178.55,0.174535946 L178.55,0.174535946 Z" fill="#FFFFFF"></path>
                    <path d="M178.65,0.174535946 L218.275,0.174535946 L226.125,0.174535946 C226.1,2.69284032 224.35,4.73740426 222.2,4.73740426 L221.975,4.73740426 L174.95,4.73740426 L174.725,4.73740426 C172.575,4.73740426 170.825,2.69284032 170.8,0.174535946 L178.65,0.174535946 L178.65,0.174535946 Z" fill="#E5E6E7"></path>
                    <g transform="translate(134.500000, 9.724146)">
                        <g opacity="0.5" transform="translate(0.000000, 0.249337)" fill="#F1F1F2">
                            <g>
                                <path d="M125.95,0.0997348265 C124.85,0.0997348265 123.975,0.0498674133 123.975,0.199469653 C123.975,0.349071893 124.85,0.673210079 125.95,0.673210079 C127.05,0.673210079 127.925,0.349071893 127.925,0.199469653 C127.925,0.0498674133 127.05,0.0997348265 125.95,0.0997348265 L125.95,0.0997348265 Z M1.975,0.0997348265 C0.875,0.0997348265 0,0.0498674133 0,0.199469653 C0,0.349071893 0.875,0.673210079 1.975,0.673210079 C3.075,0.673210079 3.95,0.349071893 3.95,0.199469653 C3.975,0.0498674133 3.075,0.0997348265 1.975,0.0997348265 L1.975,0.0997348265 Z"></path>
                            </g>
                        </g>
                        <path d="M125.95,0.14960224 C124.85,0.14960224 123.975,0.274270773 123.975,0.448806719 C123.975,0.598408959 124.85,0.748011199 125.95,0.748011199 C127.05,0.748011199 127.925,0.623342666 127.925,0.448806719 C127.925,0.29920448 127.05,0.14960224 125.95,0.14960224 L125.95,0.14960224 Z M1.975,0.14960224 C0.875,0.14960224 0,0.274270773 0,0.448806719 C0,0.598408959 0.875,0.748011199 1.975,0.748011199 C3.075,0.748011199 3.95,0.623342666 3.95,0.448806719 C3.975,0.29920448 3.075,0.14960224 1.975,0.14960224 L1.975,0.14960224 Z" fill="#424143"></path>
                    </g>
                    <polygon fill="url(#linearGradient-3)" opacity="0.5" points="1.4 7.80425018 395.55 7.80425018 395.55 8.36649292 1.4 8.36649292"></polygon>
                </g>
            </g>
        </g>
    </g>
</svg>